<svg width="63" height="30" viewBox="0 0 63 30" fill="none" xmlns="http://www.w3.org/2000/svg">
<!-- <rect x="0.56897" y="0.5" width="61.069" height="29" rx="8.5" stroke="#DBE2F0"/> -->
<path d="M47.7806 21.7241C47.5983 21.7241 47.4388 21.7104 47.3021 21.6831C47.1654 21.6557 47.0332 21.6238 46.9056 21.5874L47.1927 20.3569C47.2565 20.3752 47.3294 20.3934 47.4115 20.4116C47.5026 20.439 47.5892 20.4526 47.6712 20.4526C48.0267 20.4526 48.3092 20.3433 48.5189 20.1245C48.7376 19.9149 48.9017 19.6415 49.0111 19.3042L49.1341 18.8804L46.4955 12.2497H48.0951L49.2571 15.5445C49.3574 15.8362 49.4531 16.1461 49.5442 16.4742C49.6445 16.7932 49.7448 17.1122 49.845 17.4312H49.8997C49.9817 17.1213 50.0638 16.8069 50.1458 16.4879C50.2369 16.1598 50.3235 15.8453 50.4056 15.5445L51.4172 12.2497H52.9348L50.5013 19.2632C50.2187 20.0197 49.8769 20.6167 49.4759 21.0542C49.0749 21.5008 48.5098 21.7241 47.7806 21.7241Z" fill="white"/>
<path d="M42.3742 19.1265C41.5357 19.1265 40.8658 18.8166 40.3645 18.1969C39.8632 17.5771 39.6126 16.7158 39.6126 15.6129C39.6126 14.8838 39.7447 14.2549 40.0091 13.7263C40.2825 13.1976 40.6379 12.792 41.0754 12.5095C41.5129 12.2269 41.9732 12.0857 42.4563 12.0857C42.8391 12.0857 43.1626 12.154 43.4269 12.2907C43.7004 12.4183 43.9647 12.5961 44.2199 12.8239L44.1652 11.7439V9.31033H45.7374V18.9625H44.4386L44.3293 18.2379H44.2746C44.0285 18.484 43.7414 18.6936 43.4133 18.8668C43.0852 19.0399 42.7388 19.1265 42.3742 19.1265ZM42.757 17.8277C43.2583 17.8277 43.7277 17.5771 44.1652 17.0758V13.945C43.9374 13.7354 43.7095 13.5895 43.4816 13.5075C43.2538 13.4255 43.0259 13.3845 42.7981 13.3845C42.3697 13.3845 42.0005 13.5804 41.6907 13.9723C41.3899 14.3551 41.2395 14.8974 41.2395 15.5993C41.2395 16.3193 41.3717 16.8707 41.636 17.2535C41.9003 17.6363 42.274 17.8277 42.757 17.8277Z" fill="white"/>
<path d="M35.6773 19.1265C35.1213 19.1265 34.6018 18.9898 34.1187 18.7163C33.6357 18.4338 33.2438 18.0328 32.943 17.5132C32.6422 16.9846 32.4918 16.3512 32.4918 15.6129C32.4918 14.8655 32.6422 14.2321 32.943 13.7126C33.2438 13.1839 33.6357 12.7829 34.1187 12.5095C34.6018 12.2269 35.1213 12.0856 35.6773 12.0856C36.2424 12.0856 36.7665 12.2269 37.2495 12.5095C37.7326 12.7829 38.1245 13.1839 38.4253 13.7126C38.7261 14.2321 38.8764 14.8655 38.8764 15.6129C38.8764 16.3512 38.7261 16.9846 38.4253 17.5132C38.1245 18.0328 37.7326 18.4338 37.2495 18.7163C36.7665 18.9898 36.2424 19.1265 35.6773 19.1265ZM35.6773 17.8414C36.1695 17.8414 36.5568 17.6363 36.8394 17.2261C37.1219 16.816 37.2632 16.2782 37.2632 15.6129C37.2632 14.9384 37.1219 14.3961 36.8394 13.986C36.5568 13.5758 36.1695 13.3708 35.6773 13.3708C35.1851 13.3708 34.7978 13.5758 34.5152 13.986C34.2418 14.3961 34.1051 14.9384 34.1051 15.6129C34.1051 16.2782 34.2418 16.816 34.5152 17.2261C34.7978 17.6363 35.1851 17.8414 35.6773 17.8414Z" fill="white"/>
<path d="M29.202 19.1266C28.4546 19.1266 27.7756 18.9488 27.1649 18.5934C26.5543 18.2379 26.0667 17.7184 25.7021 17.0348C25.3466 16.3421 25.1689 15.5036 25.1689 14.5192C25.1689 13.544 25.3512 12.71 25.7157 12.0173C26.0894 11.3155 26.5862 10.7823 27.2059 10.4178C27.8257 10.0441 28.5093 9.85724 29.2567 9.85724C29.8218 9.85724 30.3231 9.97117 30.7606 10.199C31.198 10.4269 31.5581 10.6912 31.8406 10.992L30.993 12.0173C30.7651 11.7804 30.5099 11.5935 30.2274 11.4568C29.9539 11.311 29.644 11.2381 29.2977 11.2381C28.8146 11.2381 28.3817 11.3702 27.9989 11.6345C27.6252 11.8897 27.329 12.2589 27.1102 12.7419C26.9006 13.225 26.7958 13.8038 26.7958 14.4782C26.7958 15.499 27.0191 16.3011 27.4657 16.8844C27.9123 17.4586 28.5093 17.7457 29.2567 17.7457C29.6577 17.7457 30.0132 17.6637 30.3231 17.4996C30.633 17.3265 30.9155 17.1032 31.1707 16.8297L32.0183 17.8278C31.6538 18.247 31.2345 18.5706 30.7606 18.7984C30.2957 19.0172 29.7762 19.1266 29.202 19.1266Z" fill="white"/>
<g clip-path="url(#clip0_1209_400)">
<path fill-rule="evenodd" clip-rule="evenodd" d="M18.3414 9.31033C19.025 9.31033 19.5798 9.87873 19.5798 10.5779V13.4767C19.5798 14.1758 19.025 14.7442 18.3414 14.7442C17.6578 14.7442 17.103 14.1758 17.103 13.4767V10.5779C17.103 9.87873 17.6578 9.31033 18.3414 9.31033Z" fill="url(#paint0_radial_1209_400)"/>
<path fill-rule="evenodd" clip-rule="evenodd" d="M9.14056 12.5729C9.14056 11.8738 9.69531 11.3054 10.3789 11.3054H13.2087C13.8923 11.3054 14.447 11.8738 14.447 12.5729C14.447 13.2721 13.8923 13.8405 13.2087 13.8405H10.3789C9.69531 13.8405 9.14056 13.2721 9.14056 12.5729Z" fill="url(#paint1_linear_1209_400)"/>
<path fill-rule="evenodd" clip-rule="evenodd" d="M10.5694 17.1485C10.1603 16.5915 9.38707 16.4835 8.83793 16.9041C8.2888 17.3247 8.18233 18.1205 8.59138 18.6775C8.59138 18.6775 8.59699 18.6889 8.60259 18.6946C8.60819 18.7059 8.6194 18.7173 8.63061 18.7287C8.65302 18.7571 8.68104 18.7969 8.72026 18.8424C8.79871 18.9333 8.90518 19.0583 9.04526 19.2004C9.32543 19.4846 9.72888 19.8598 10.2668 20.2292C11.3427 20.9738 12.9509 21.7128 15.0634 21.7128C17.1759 21.7128 18.7841 20.9738 19.8599 20.2292C20.3978 19.8598 20.8013 19.4846 21.0815 19.2004C21.2216 19.0583 21.328 18.9333 21.4065 18.8424C21.4457 18.7969 21.4737 18.7571 21.4961 18.7287C21.5073 18.7116 21.5297 18.6832 21.541 18.6718C21.541 18.6718 21.541 18.6718 21.541 18.6775V18.6718C21.95 18.1091 21.8379 17.3134 21.2944 16.8928C20.7509 16.4721 19.9776 16.5858 19.5629 17.1372C19.5573 17.1429 19.5461 17.1599 19.5237 17.1826C19.4845 17.2281 19.4172 17.3077 19.3276 17.3986C19.1427 17.5862 18.8569 17.8477 18.4759 18.1148C17.7194 18.6377 16.5819 19.1663 15.0634 19.1663C13.5448 19.1663 12.4129 18.6377 11.6509 18.1148C11.2698 17.8533 10.9841 17.5919 10.7991 17.3986C10.7095 17.302 10.6422 17.2281 10.603 17.1826C10.5806 17.1599 10.5694 17.1429 10.5638 17.1372L10.5694 17.1485Z" fill="url(#paint2_linear_1209_400)"/>
</g>
<defs>
<radialGradient id="paint0_radial_1209_400" cx="0" cy="0" r="1" gradientUnits="userSpaceOnUse" gradientTransform="translate(14.2529 15.1078) rotate(-9.91777) scale(5.95671 7.34926)">
<stop offset="0.5" stop-color="#FF291F"/>
<stop offset="0.88" stop-color="#FF5543"/>
</radialGradient>
<linearGradient id="paint1_linear_1209_400" x1="9.76482" y1="13.2972" x2="15.3939" y2="10.6556" gradientUnits="userSpaceOnUse">
<stop stop-color="#A112FF"/>
<stop offset="0.21" stop-color="#A213FB"/>
<stop offset="0.36" stop-color="#A716F2"/>
<stop offset="0.5" stop-color="#AF1CE2"/>
<stop offset="0.62" stop-color="#BA24CB"/>
<stop offset="0.74" stop-color="#C92FAD"/>
<stop offset="0.85" stop-color="#DB3C89"/>
<stop offset="0.96" stop-color="#F14B5F"/>
<stop offset="1" stop-color="#FA524E"/>
</linearGradient>
<linearGradient id="paint2_linear_1209_400" x1="8.58126" y1="19.7109" x2="22.0292" y2="19.6091" gradientUnits="userSpaceOnUse">
<stop offset="0.15" stop-color="#00CBEC"/>
<stop offset="0.98" stop-color="#7048E8"/>
</linearGradient>
<clipPath id="clip0_1209_400">
<rect width="13.4483" height="12.4138" fill="white" transform="translate(8.34485 9.31033)"/>
</clipPath>
</defs>
</svg>
