<svg width="24" height="24" viewBox="0 0 24 24" fill="none" xmlns="http://www.w3.org/2000/svg">
<path d="M6.07996 9.5L2.57996 11.1C2.40816 11.1808 2.2629 11.3087 2.16115 11.469C2.0594 11.6293 2.00537 11.8152 2.00537 12.005C2.00537 12.1948 2.0594 12.3807 2.16115 12.541C2.2629 12.7013 2.40816 12.8292 2.57996 12.91L11.18 16.82C11.4392 16.9374 11.7204 16.9981 12.005 16.9981C12.2895 16.9981 12.5708 16.9374 12.83 16.82L21.41 12.92C21.5874 12.8418 21.7383 12.7136 21.8442 12.5511C21.9501 12.3887 22.0065 12.1989 22.0065 12.005C22.0065 11.8111 21.9501 11.6213 21.8442 11.4589C21.7383 11.2964 21.5874 11.1682 21.41 11.09L17.91 9.5M6.07996 14.5L2.57996 16.1C2.40816 16.1808 2.2629 16.3087 2.16115 16.469C2.0594 16.6293 2.00537 16.8152 2.00537 17.005C2.00537 17.1948 2.0594 17.3807 2.16115 17.541C2.2629 17.7013 2.40816 17.8292 2.57996 17.91L11.18 21.82C11.4392 21.9374 11.7204 21.9981 12.005 21.9981C12.2895 21.9981 12.5708 21.9374 12.83 21.82L21.41 17.92C21.5874 17.8418 21.7383 17.7136 21.8442 17.5511C21.9501 17.3887 22.0065 17.1989 22.0065 17.005C22.0065 16.8111 21.9501 16.6213 21.8442 16.4589C21.7383 16.2964 21.5874 16.1682 21.41 16.09L17.91 14.5M12.83 2.18011C12.5694 2.06126 12.2864 1.99976 12 1.99976C11.7136 1.99976 11.4305 2.06126 11.17 2.18011L2.59996 6.08011C2.42251 6.15836 2.27164 6.28651 2.16573 6.44897C2.05981 6.61143 2.00342 6.80118 2.00342 6.99511C2.00342 7.18905 2.05981 7.3788 2.16573 7.54126C2.27164 7.70371 2.42251 7.83187 2.59996 7.91011L11.18 11.8201C11.4405 11.939 11.7236 12.0005 12.01 12.0005C12.2964 12.0005 12.5794 11.939 12.84 11.8201L21.42 7.92011C21.5974 7.84187 21.7483 7.71371 21.8542 7.55126C21.9601 7.3888 22.0165 7.19905 22.0165 7.00511C22.0165 6.81118 21.9601 6.62143 21.8542 6.45897C21.7483 6.29651 21.5974 6.16836 21.42 6.09011L12.83 2.18011Z" stroke="url(#paint0_linear_1160_184)" stroke-width="1.75" stroke-linecap="round" stroke-linejoin="round"/>
<defs>
<linearGradient id="paint0_linear_1160_184" x1="2.00342" y1="5.63582" x2="17.457" y2="20.646" gradientUnits="userSpaceOnUse">
<stop stop-color="#00CBEC"/>
<stop offset="0.5" stop-color="#A112FF"/>
<stop offset="1" stop-color="#FF5543"/>
</linearGradient>
</defs>
</svg>
