<svg width="163" height="24" viewBox="0 0 163 24" fill="none" xmlns="http://www.w3.org/2000/svg">
<g clip-path="url(#clip0_54_9)">
<g clip-path="url(#clip1_54_9)">
<path d="M8.43584 6.44964L10.9731 7.1373L9.2451 0.574997L6.31877 1.37521L7.36042 5.35432C7.49957 5.88826 7.91164 6.30827 8.43584 6.44964Z" fill="#F34E3F"/>
<path d="M4.14631 19.8158L9.68149 14.2034L11.6959 21.85L14.6222 21.0498L11.7067 9.94699L0.778194 6.9877L0 9.97718L7.51984 12.0196L2.00763 17.6238L4.14631 19.8158Z" fill="#F34E3F"/>
<path d="M14.4668 10.6895L15.1464 13.2782C15.2869 13.8122 15.699 14.2308 16.2218 14.3722L20.1614 15.4359L20.9396 12.4464L14.4668 10.6895Z" fill="#F34E3F"/>
<path d="M16.7933 2.60779L14.275 5.16353C13.9967 5.44628 13.8386 5.821 13.8278 6.22179L13.7873 7.84281L15.2626 7.89497C15.2437 7.89497 15.2815 7.89497 15.2626 7.89497C15.6666 7.89497 16.0462 7.73438 16.3313 7.44476L18.932 4.7998L16.7933 2.60779Z" fill="#F34E3F"/>
</g>
</g>
<path d="M35.7031 10.6213C34.8091 10.2403 33.6909 9.92161 32.3485 9.66668C31.4326 9.47271 30.7464 9.30091 30.2885 9.15128C29.8305 9.00165 29.4915 8.81045 29.27 8.57907C29.0486 8.34769 28.9379 8.02903 28.9379 7.62585C28.9379 7.14647 29.0664 6.77654 29.3247 6.51469C29.5831 6.25283 29.9344 6.06994 30.3773 5.96465C30.8202 5.86073 31.3738 5.80808 32.0382 5.80808C32.8352 5.80808 33.6294 5.90507 34.4195 6.10043C35.2096 6.29578 36.0613 6.60197 36.9771 7.02039L37.4638 4.23694C36.6368 3.83237 35.7701 3.5331 34.861 3.33914C33.9534 3.14517 33.0115 3.0468 32.0382 3.0468C30.8722 3.0468 29.8086 3.22968 28.849 3.59684C27.8894 3.96399 27.1211 4.49464 26.5456 5.19016C25.9701 5.88567 25.6817 6.73498 25.6817 7.73807C25.6817 8.62063 25.9031 9.36187 26.346 9.96041C26.7889 10.5589 27.4383 11.0411 28.2954 11.4082C29.1511 11.7754 30.2447 12.0774 31.5734 12.3171C32.518 12.5125 33.2261 12.6871 33.6991 12.845C34.1721 13.0016 34.5412 13.2191 34.8064 13.4962C35.0716 13.7733 35.2055 14.1737 35.2055 14.6974C35.2055 15.1768 35.0538 15.5536 34.7517 15.8307C34.4496 16.1078 34.0504 16.2949 33.5556 16.3919C33.0607 16.4888 32.4661 16.5373 31.773 16.5373C30.8134 16.5373 29.7608 16.4099 28.618 16.1563C27.4738 15.9028 26.4882 15.5578 25.6612 15.1241L25.3727 17.8854C26.1697 18.3496 27.1252 18.7015 28.2407 18.9398C29.3548 19.1795 30.5468 19.2986 31.8168 19.2986C33.0867 19.2986 34.1338 19.1157 35.1385 18.7486C36.1419 18.3828 36.943 17.8439 37.5417 17.1331C38.1391 16.4223 38.4385 15.5578 38.4385 14.5408C38.4385 13.5987 38.2061 12.8048 37.7413 12.162C37.2765 11.5191 36.5971 11.0065 35.7045 10.6241L35.7031 10.6213Z" fill="#F8F8F8"/>
<path d="M49.4893 7.27665C48.4708 6.73077 47.3335 6.45782 46.0786 6.45782C44.8237 6.45782 43.6495 6.73077 42.6461 7.27665C41.6413 7.82254 40.8553 8.58594 40.288 9.56548C39.7194 10.5464 39.435 11.6493 39.435 12.8768C39.435 14.1044 39.7153 15.1809 40.2771 16.1535C40.8376 17.1261 41.6236 17.8937 42.6352 18.4548C43.6467 19.0159 44.7936 19.2972 46.0786 19.2972C47.3636 19.2972 48.4708 19.0159 49.4893 18.4548C50.5077 17.8937 51.3019 17.1233 51.8706 16.1424C52.4392 15.1629 52.7236 14.067 52.7236 12.8546C52.7236 11.6423 52.4392 10.5284 51.8706 9.55579C51.3019 8.58317 50.509 7.82392 49.4893 7.27804V7.27665ZM49.2897 14.829C48.9794 15.3984 48.5433 15.8432 47.9828 16.1646C47.421 16.486 46.7935 16.6467 46.1005 16.6467C45.4074 16.6467 44.7349 16.486 44.1744 16.1646C43.6126 15.8432 43.1696 15.3943 42.8457 14.8179C42.5203 14.2415 42.359 13.5793 42.359 12.8311C42.359 12.0829 42.5217 11.4317 42.8457 10.8789C43.171 10.3261 43.6139 9.89108 44.1744 9.57657C44.7349 9.26206 45.3705 9.1055 46.0786 9.1055C46.7867 9.1055 47.4224 9.26206 47.9828 9.57657C48.5433 9.89108 48.9794 10.333 49.2897 10.9011C49.6 11.4705 49.7545 12.1286 49.7545 12.8768C49.7545 13.625 49.6 14.2609 49.2897 14.829Z" fill="#F8F8F8"/>
<path d="M63.0635 14.0295C63.0074 14.1792 62.9459 14.326 62.8748 14.4701C62.5577 15.113 62.1175 15.6228 61.5571 15.9969C60.9952 16.371 60.3692 16.558 59.6747 16.558C58.7588 16.558 58.0767 16.3073 57.627 15.8057C57.1759 15.3042 56.9517 14.5906 56.9517 13.6624V6.70442H54.0072V14.1113C54.0072 15.1587 54.2136 16.0717 54.6278 16.849C55.0406 17.6276 55.6161 18.2262 56.3557 18.6446C57.0938 19.063 57.9427 19.2736 58.9024 19.2736C60.3486 19.2736 61.4942 18.8995 62.3349 18.1514C62.611 17.9061 62.8516 17.6373 63.0662 17.3464V19.027H66.0107V6.70442H63.0662V14.0295H63.0635Z" fill="#F8F8F8"/>
<path d="M74.158 6.47995C72.7705 6.47995 71.7288 6.94409 71.0358 7.87099C70.8717 8.09128 70.7241 8.33651 70.5929 8.60668V6.7044H67.647V19.027H70.5929V13.9547C70.5929 12.5789 70.884 11.4747 71.4677 10.6447C72.0501 9.81483 72.8443 9.39918 73.8477 9.39918H74.579C74.7266 9.41442 74.8592 9.42135 74.9782 9.42135H75.3322L75.6644 6.63789C75.1477 6.53398 74.646 6.48134 74.158 6.48134V6.47995Z" fill="#F8F8F8"/>
<path d="M80.4585 9.54332C81.0272 9.23712 81.6724 9.08333 82.3969 9.08333C82.9874 9.08333 83.5411 9.17339 84.0578 9.35212C84.5745 9.53223 85.0981 9.82318 85.6298 10.2277L86.8478 8.00542C86.1247 7.46647 85.3865 7.07437 84.6333 6.82775C83.8801 6.58114 83.0531 6.45782 82.1536 6.45782C80.9575 6.45782 79.8652 6.72384 78.8755 7.25448C77.8858 7.78513 77.1039 8.54161 76.5284 9.52115C75.9529 10.5021 75.6645 11.6202 75.6645 12.8768C75.6645 14.1335 75.9447 15.2446 76.5065 16.2103C77.067 17.176 77.8462 17.9242 78.8427 18.4548C79.8393 18.9854 80.9356 19.2515 82.1317 19.2515C83.0462 19.2515 83.8623 19.1351 84.5786 18.9037C85.2949 18.6723 86.0509 18.2858 86.8478 17.7482L85.6736 15.5716C85.1418 15.9304 84.6073 16.2034 84.0674 16.3904C83.5288 16.5775 82.9779 16.6717 82.4174 16.6717C81.6943 16.6717 81.0449 16.522 80.4681 16.2228C79.8926 15.9235 79.4387 15.4857 79.1065 14.9093C78.7744 14.333 78.6076 13.6568 78.6076 12.8782C78.6076 12.0995 78.773 11.4082 79.1065 10.8471C79.4387 10.2859 79.8885 9.85228 80.4571 9.5447L80.4585 9.54332Z" fill="#F8F8F8"/>
<path d="M96.3702 7.18655C95.4694 6.71548 94.4797 6.47995 93.4025 6.47995C92.1175 6.47995 90.9843 6.75289 90.0028 7.29878C89.0213 7.84466 88.264 8.60391 87.7322 9.57653C87.2005 10.5491 86.9353 11.6492 86.9353 12.8754C86.9353 14.1015 87.2155 15.1614 87.7773 16.141C88.3378 17.1219 89.1279 17.8881 90.1463 18.4423C91.1647 18.9965 92.3089 19.2722 93.5788 19.2722C94.4647 19.2722 95.2548 19.178 95.9479 18.9909C96.6423 18.8039 97.3053 18.4936 97.9409 18.0599L97.1877 15.6131C96.7147 15.9581 96.1693 16.2227 95.5487 16.4098C94.9281 16.5968 94.3225 16.691 93.7333 16.691C92.9364 16.691 92.2501 16.5456 91.6733 16.2532C91.0978 15.9609 90.6549 15.5314 90.3445 14.9619C90.175 14.6516 90.0534 14.2983 89.9768 13.9076H98.8924C98.9949 13.6083 99.081 13.2896 99.1466 12.953C99.2136 12.6163 99.2464 12.2616 99.2464 11.8875C99.2464 10.8706 98.9921 9.94922 98.4823 9.12624C97.9724 8.30326 97.2684 7.65623 96.3675 7.18517L96.3702 7.18655ZM90.2912 10.8346C90.5646 10.2665 90.9624 9.82869 91.4874 9.52111C92.0109 9.21491 92.6356 9.06112 93.3588 9.06112C94.0081 9.06112 94.5686 9.19274 95.0415 9.45322C95.5145 9.71507 95.8604 10.1155 96.0818 10.6544C96.2117 10.9689 96.2869 11.3292 96.3101 11.7324H89.9919C90.0602 11.4095 90.1586 11.1089 90.2912 10.8346Z" fill="#F8F8F8"/>
<path d="M110.433 8.38781C109.946 7.74495 109.332 7.2628 108.594 6.93998C107.856 6.61854 106.985 6.45782 105.98 6.45782C104.888 6.45782 103.909 6.71968 103.047 7.2434C102.183 7.76712 101.503 8.49311 101.01 9.42001C100.515 10.3483 100.268 11.3874 100.268 12.5401C100.268 13.6929 100.515 14.6696 101.01 15.5591C101.505 16.45 102.191 17.1524 103.07 17.6692C103.948 18.186 104.933 18.4437 106.027 18.4437C107.001 18.4437 107.854 18.2872 108.584 17.9727C109.316 17.6581 109.917 17.1802 110.389 16.5359V17.1192C110.389 18.2262 110.037 19.1018 109.336 19.7447C108.635 20.3876 107.664 20.7104 106.425 20.7104C105.613 20.7104 104.822 20.5871 104.056 20.3405C103.287 20.0938 102.601 19.753 101.995 19.3194L100.844 21.4295C101.641 21.9823 102.538 22.4062 103.535 22.6972C104.531 22.9895 105.606 23.135 106.757 23.135C108.824 23.135 110.441 22.5739 111.607 21.4516C112.773 20.3294 113.357 18.7665 113.357 16.7603V6.70444H110.434V8.38781H110.433ZM109.934 14.4369C109.616 14.9828 109.184 15.4026 108.638 15.6935C108.091 15.9859 107.457 16.1313 106.733 16.1313C106.069 16.1313 105.468 15.9775 104.929 15.6714C104.39 15.3652 103.965 14.9343 103.656 14.3801C103.346 13.8273 103.192 13.2135 103.192 12.5401C103.192 11.8668 103.346 11.2045 103.656 10.6434C103.967 10.0823 104.39 9.64446 104.929 9.32995C105.468 9.01545 106.069 8.85889 106.733 8.85889C107.457 8.85889 108.092 9.00436 108.638 9.2967C109.183 9.58904 109.615 10.0116 109.934 10.5644C110.251 11.1186 110.409 11.7615 110.409 12.4944C110.409 13.2273 110.251 13.8896 109.934 14.4355V14.4369Z" fill="#F8F8F8"/>
<path d="M118.427 7.87102C118.263 8.09131 118.115 8.33654 117.984 8.60671V6.70443H115.038V19.027H117.984V13.9547C117.984 12.5789 118.275 11.4747 118.859 10.6448C119.441 9.81486 120.235 9.39922 121.239 9.39922H121.97C122.118 9.41446 122.25 9.42138 122.369 9.42138H122.723L123.055 6.63793C122.539 6.53401 122.037 6.48137 121.549 6.48137C120.161 6.48137 119.12 6.94551 118.427 7.8724V7.87102Z" fill="#F8F8F8"/>
<path d="M133.097 7.81561C132.144 6.91088 130.702 6.45782 128.768 6.45782C127.292 6.45782 125.807 6.70444 124.317 7.19906L124.671 9.82457C125.217 9.58488 125.815 9.402 126.465 9.27453C127.114 9.14707 127.778 9.08333 128.458 9.08333C129.491 9.08333 130.27 9.28562 130.794 9.68879C131.317 10.0934 131.58 10.6919 131.58 11.4844V11.5786C131.099 11.5357 130.575 11.4955 130.008 11.4608C129.27 11.4165 128.546 11.3929 127.837 11.3929C126.243 11.3929 125.061 11.7601 124.294 12.493C123.526 13.226 123.143 14.1695 123.143 15.3208C123.143 16.0842 123.312 16.7645 123.653 17.363C123.992 17.9616 124.484 18.4299 125.125 18.7652C125.767 19.1018 126.508 19.2709 127.35 19.2709C128.192 19.2709 128.916 19.1476 129.565 18.9009C130.214 18.6543 130.739 18.3329 131.137 17.9352C131.306 17.7662 131.453 17.5944 131.58 17.4198V19.0242H134.526V11.6853C134.526 10.0102 134.05 8.71895 133.097 7.81284V7.81561ZM130.164 16.299C129.677 16.5761 129.063 16.7146 128.325 16.7146C127.587 16.7146 126.964 16.5844 126.542 16.3211C126.121 16.0593 125.911 15.6741 125.911 15.1656C125.911 14.6267 126.124 14.2152 126.553 13.9312C126.981 13.6471 127.704 13.5044 128.724 13.5044C129.285 13.5044 129.795 13.5155 130.253 13.5377C130.702 13.5599 131.144 13.6 131.58 13.6582C131.569 14.2221 131.457 14.7278 131.238 15.1753C131.01 15.6464 130.652 16.0205 130.164 16.2976V16.299Z" fill="#F8F8F8"/>
<path d="M146.252 7.28773C145.344 6.73492 144.35 6.45782 143.273 6.45782C142.431 6.45782 141.649 6.6033 140.926 6.89564C140.203 7.18798 139.575 7.61055 139.044 8.16337V6.70444H136.098V22.887H139.044V17.6124C139.383 17.9865 139.778 18.2941 140.229 18.5324C140.679 18.7721 141.152 18.9591 141.646 19.0935C142.141 19.2279 142.676 19.2958 143.253 19.2958C144.36 19.2958 145.363 19.0298 146.264 18.4991C147.165 17.9685 147.877 17.2162 148.401 16.2436C148.924 15.2709 149.187 14.1556 149.187 12.899C149.187 11.6423 148.924 10.5686 148.401 9.58765C147.877 8.60811 147.161 7.84055 146.253 7.28635L146.252 7.28773ZM145.809 14.8179C145.507 15.379 145.086 15.8168 144.547 16.1313C144.009 16.4458 143.399 16.6024 142.72 16.6024C141.996 16.6024 141.354 16.4528 140.793 16.1535C140.232 15.8542 139.801 15.4206 139.498 14.8511C139.195 14.2831 139.044 13.625 139.044 12.8754C139.044 12.1259 139.198 11.4539 139.508 10.8997C139.819 10.3469 140.251 9.91186 140.804 9.59735C141.358 9.28284 141.996 9.12629 142.72 9.12629C143.399 9.12629 144.007 9.28284 144.547 9.59735C145.086 9.91186 145.507 10.3566 145.809 10.933C146.111 11.5093 146.263 12.1633 146.263 12.8962C146.263 13.6291 146.111 14.254 145.809 14.8151V14.8179Z" fill="#F8F8F8"/>
<path d="M162.053 8.88104C161.64 8.10378 161.063 7.50524 160.325 7.08544C159.587 6.66702 158.738 6.45642 157.778 6.45642C156.331 6.45642 155.188 6.83051 154.346 7.57867C154.07 7.82391 153.829 8.09269 153.614 8.38365V2.46205H150.669V19.027H153.614V11.7005C153.671 11.5509 153.732 11.404 153.803 11.2599C154.12 10.6171 154.559 10.1072 155.121 9.73312C155.681 9.35903 156.309 9.17199 157.003 9.17199C157.919 9.17199 158.601 9.42276 159.051 9.92431C159.501 10.4259 159.726 11.1408 159.726 12.0677V19.0256H162.672V11.6188C162.672 10.5713 162.466 9.6583 162.052 8.88104H162.053Z" fill="#F8F8F8"/>
<defs>
<clipPath id="clip0_54_9">
<rect width="20.941" height="21.275" fill="white" transform="translate(0 0.574997)"/>
</clipPath>
<clipPath id="clip1_54_9">
<rect width="20.941" height="21.275" fill="white" transform="translate(0 0.574997)"/>
</clipPath>
</defs>
</svg>
